' This document is just meant for generating the example screenshots in this repo.
' It's primary purpose is for testing changes and use cases of the default_styles.
' Use this as an example if the documentation is insufficient or for a quick copy-paste.

@startuml example_activity
    !include_once ../enriched.puml
    Enrich("activity", $title="Activity Diagram Styling", $confidential=%false())

    |Swimlane1|
    start
    :foo;
    if (foo?) then (yes)
    :bar;
    endif
    :baz;
    note right
        Test note
    end note
    fork
        |Swimlane1|
        :qux;
    fork again
        |Swimlane2|
        :quux;
    end fork
    |Swimlane1|
    end
@enduml

@startuml example_sequence
    !include_once ../enriched.puml
    Enrich("sequence", $title="Sequence Diagram Styling", $confidential=%false())

    participant participant as Foo
    actor       actor       as Foo1
    boundary    boundary    as Foo2
    control     control     as Foo3
    entity      entity      as Foo4
    database    database    as Foo5
    box Box
        collections collections as Foo6
        queue       queue       as Foo7
    end box

    Foo -> Foo1 : To actor

    alt Alt
        Foo -> Foo2 : To boundary
    end

    group group
        Foo -> Foo3 : To control
    end

    note left : Left note

    ref over Foo : Reference


    loop looping
        Foo -> Foo4 : To entity
    end

    hnote right : Hex note

    ... Delay ...
    Foo -> Foo5 : To database
    == Section Title ==
    Foo -> Foo6 : To collections
    Foo6 --> Foo : Back to actor
    |||
    Foo -> Foo7: To queue
@enduml

@startuml example_state
    !include_once ../enriched.puml
    Enrich("state", $title="State Diagram Styling", $confidential=%false())

    state Todo<<todo>> {
        [*] --> Idle
        Configuring --> Idle : EvConfig
    }
    Todo : Some description text here

    state InProgress<<inprogress>> {
        [*] --> NewValueSelection
        NewValueSelection --> NewValuePreview : EvNewValue
        NewValuePreview --> NewValueSelection : EvNewValueRejected
        NewValuePreview --> NewValueSelection : EvNewValueSaved

        state NewValuePreview<<composite>> {
            State1 -> State2
        }
        ||
        [*] --> OtherState
        OtherState --> [*]
    }

    state Finished<<done>>

    [*] --> Init
    Init --> Todo
    Todo --> InProgress
    InProgress --> Finished
@enduml

@startuml example_class
    !include_once ../enriched.puml
    Enrich("class", $title="Class Diagram Styling", $confidential=%false())

    abstract class AbstractList
    abstract AbstractCollection
    interface List
    interface Collection
    circle a_circle
    diamond a_diamond

    List <|-- AbstractList
    Collection <|-- AbstractCollection

    Collection <|- List
    AbstractCollection <|- AbstractList
    AbstractList <|-- ArrayList

    class ArrayList {
        Object[] elementData
        size()
    }

    foo ()- ArrayList

    enum TimeUnit {
        DAYS
        HOURS
        MINUTES
    }

    package MyPackage {
        annotation SuppressWarnings

        annotation Annotation {
            annotation with members
            String foo()
            String bar()
        }
    }
@enduml

@startuml example_er
    !include_once ../enriched.puml
    Enrich("er", $title="Entity Relationship Diagram Styling", $confidential=%false())
    SET_SCHEMA_DEFAULTS($id_type="UUID")

    EnumType(REPORT_STATUS_ENUM, "INT(11)") {
        enum_value(incomplete, 0)
        enum_value(complete, 1)
        enum_value(not_applicable, 2)
    }

    TableLayer("Items", $color="lightblue") {
        Table(items_progress_report_caches) {
            ---
            table_pk()
            table_timestamps($destroyed=1)
            table_fk(item_id)
            table_column(photos_uploaded, REPORT_STATUS_ENUM, $nullable=0)
            table_column(photo_editing_work, REPORT_STATUS_ENUM)
        }

        Table(items) {
            ---
            table_pk()
            table_omission()
            table_poly_fk(ownable, $nullable=1)
        }
    }

    TableLayer("Identity") {
        PartialTable(users)
        PartialTable(organizations)
    }

    JunctionTable(users, organizations, $table_pk=0)

    has_one(items_progress_report_caches, items)
    has_one_poly(items, ownable)
    poly_can_be(ownable, users)
    poly_can_be(ownable, organizations)

    note right of items::id
        test
    end note
@enduml

@startuml example_generic
    !include_once ../enriched.puml
    Enrich($title="Generic Diagram Styling", $confidential=%false())

    actor actor
    actor/ "actor/"
    agent agent
    artifact artifact
    boundary boundary
    card card
    circle circle
    cloud cloud
    collections collections
    component component
    control control
    database database
    entity entity
    file file
    folder folder [
        folder description text
    ]
    frame frame
    hexagon hexagon
    interface interface
    label label
    node node<<sterotype>> [
        node description text
    ]
    package package<<sterotype>> [
        description text
    ]
    person person
    queue queue
    rectangle rectangle
    stack stack
    storage storage
    usecase usecase [
        description text
    ]
    usecase/ "usecase/"

    legend left
        Legend text
    end legend

    note "Note text" as note1
@enduml

@startuml example_usecase
    !include_once ../enriched.puml
    Enrich("usecase", $title="Usecase Diagram Styling", $confidential=%false())

    actor Guest as g
    package Professional {
        actor Chef as c
        actor "Food Critic" as fc
    }

    package Restaurant {
        usecase "Eat Food" as UC1
        usecase "Pay for Food" as UC2
        usecase "Drink" as UC3
        usecase "Review" as UC4
    }

    fc --> UC4
    g --> UC1
    g --> UC2
    g --> UC3
@enduml

@startuml example_object
    !include_once ../enriched.puml
    Enrich("object", $title="Object Diagram Styling", $confidential=%false())

    package Package {

    }

    namespace Namespace {

    }

    object London<<city>>
    object Washington<<state>>
    object NewYork {
        NY State
    }
    diamond dia
    circle circ

    map "Map **Contry => CapitalCity**" as CapitalCity {
        UK *-> London
        USA => Washington
        Germany => Berlin
    }

    NewYork --> dia
    Washington --> dia
    dia --> CapitalCity::USA
@enduml
